<?xml version="1.0" encoding="UTF-8" standalone="no"?>
<!DOCTYPE svg PUBLIC "-//W3C//DTD SVG 1.1//EN" "http://www.w3.org/Graphics/SVG/1.1/DTD/svg11.dtd">
<svg width="100%" height="100%" viewBox="0 0 490 123" version="1.1" xmlns="http://www.w3.org/2000/svg" xmlns:xlink="http://www.w3.org/1999/xlink" xml:space="preserve" xmlns:serif="http://www.serif.com/" style="fill-rule:evenodd;clip-rule:evenodd;stroke-linejoin:round;stroke-miterlimit:2;">
    <g transform="matrix(1,0,0,1,-52.9209,-124.033)">
        <g transform="matrix(1,0,0,1,501.818,171.943)">
            <path d="M0,-0.598C0,-0.598 -0.001,-0.451 -0.003,-0.175C-0.002,-0.116 0,-0.059 0,0L0,-0.598Z" style="fill:rgb(0,102,47);fill-rule:nonzero;"/>
        </g>
        <g transform="matrix(-1,0,0,1,500.391,171.339)">
            <rect x="-2.854" y="0" width="2.854" height="0.604" style="fill:rgb(0,102,47);"/>
        </g>
        <g transform="matrix(1,0,0,1,472.623,171.346)">
            <path d="M0,0.598C0,0.539 0.003,0.482 0.003,0.423C0.001,0.147 0,0 0,0L0,0.598Z" style="fill:rgb(0,102,47);fill-rule:nonzero;"/>
        </g>
        <g transform="matrix(1,0,0,1,474.049,171.331)">
            <path d="M0,0.612L-2.854,0.612L-2.854,0.014L0,0L0.003,0.431L0,0.431L0,0.612Z" style="fill:rgb(0,102,47);fill-rule:nonzero;"/>
        </g>
        <g transform="matrix(1,0,0,1,487.22,124.547)">
            <path d="M0,122.251C-5.333,122.251 -9.896,121.433 -13.194,119.885C-14.817,119.125 -16.044,115.27 -15.873,111.467C-15.663,106.769 -15.984,53.31 -16.021,47.23C-15.969,41.207 -13.345,35.825 -8.433,31.644C-8.255,31.442 -7.815,30.358 -7.476,28.654C-7.32,27.702 -6.739,16.059 -6.397,8.684L-7.009,7.462L-6.725,4.068L-6.382,3.45L-6.382,1.915L-6.165,1.567C-6.032,1.356 -5.308,0.3 -4.059,0.3C-3.94,0.3 -3.79,0.273 -3.58,0.245C-2.92,0.158 -1.814,0.012 0.089,0.001L0.29,0C2.112,0 3.097,0.155 3.684,0.248C3.842,0.273 3.959,0.298 4.06,0.3C5.31,0.3 6.033,1.356 6.166,1.568L6.383,1.915L6.383,3.449L6.726,4.068L7.008,7.462L6.397,8.684C6.74,16.059 7.32,27.703 7.479,28.669C7.816,30.358 8.256,31.442 8.458,31.668C13.346,35.826 15.97,41.208 16.021,47.209C15.984,53.31 15.663,106.769 15.873,111.467C16.044,115.27 14.817,119.125 13.194,119.885C9.896,121.433 5.333,122.251 0,122.251" style="fill:rgb(0,102,47);fill-rule:nonzero;"/>
        </g>
        <g transform="matrix(1,0,0,1,475.367,129.437)">
            <path d="M0,112.472C2.915,113.804 7.009,114.508 11.854,114.508C16.699,114.508 20.793,113.804 23.707,112.472C24.063,112.021 25.021,109.91 24.876,106.705C24.663,101.936 24.984,48.41 25.021,42.323C24.977,37.122 22.762,32.608 18.437,28.928C17.649,28.257 17.009,26.708 16.532,24.324C16.304,23.185 15.596,8.139 15.384,3.555L15.367,3.184L15.952,2.013L15.787,0.027L15.383,-0.701L15.383,-1.78C15.293,-1.792 15.197,-1.807 15.093,-1.823C14.555,-1.908 13.742,-2.036 12.144,-2.036L11.959,-2.035C10.235,-2.026 9.28,-1.899 8.647,-1.816C8.53,-1.8 8.423,-1.786 8.325,-1.775L8.325,-0.701L7.921,0.027L7.756,2.013L8.34,3.184L8.323,3.555C8.111,8.139 7.404,23.185 7.176,24.324C6.699,26.708 6.058,28.257 5.271,28.927C0.946,32.607 -1.269,37.122 -1.314,42.344C-1.277,48.41 -0.956,101.936 -1.169,106.705C-1.313,109.91 -0.356,112.021 0,112.472" style="fill:rgb(0,102,47);fill-rule:nonzero;"/>
        </g>
        <g transform="matrix(1,0,0,1,70.9869,164.251)">
            <path d="M0,3.554L-8.449,3.554L-8.449,11.5L-0.963,11.5L0,8.071L3.764,8.071L3.764,16.519L-18.066,16.519L-18.066,12.964L-14.93,11.709L-14.93,-7.947L-18.066,-9.202L-18.066,-12.757L-8.449,-12.965L3.263,-12.965L3.263,-4.894L-0.503,-4.894L-1.547,-7.947L-8.449,-7.947L-8.449,-1.046L0,-1.046L0,3.554Z" style="fill:rgb(29,29,27);fill-rule:nonzero;"/>
        </g>
        <g transform="matrix(1,0,0,1,91.3101,151.705)">
            <path d="M0,25.719L0,29.065L-13.423,29.065L-13.423,25.719L-10.077,24.674L-10.077,1.17L-13.423,0.334L-13.423,-3.012L-3.763,-3.346L-3.763,24.674L0,25.719Z" style="fill:rgb(29,29,27);fill-rule:nonzero;"/>
        </g>
        <g transform="matrix(1,0,0,1,114.813,167.262)">
            <path d="M0,-2.468C3.303,-2.468 5.227,-4.056 5.227,-6.859C5.227,-9.243 3.639,-10.958 1.046,-10.958L-2.384,-10.958L-2.384,-2.468L0,-2.468ZM-12.003,9.953L-8.866,8.698L-8.866,-10.958L-12.003,-12.213L-12.003,-15.767L-2.384,-15.976L0.793,-15.976C7.653,-15.976 11.669,-13.133 11.669,-7.445C11.669,-3.513 9.786,-0.962 6.942,0.46C7.402,1.003 8.029,1.798 8.699,3.178L11.5,8.908L14.345,9.953L14.345,13.508L6.609,13.508L3.096,5.771C1.673,2.593 1.296,1.924 -0.92,1.924L-2.384,1.924L-2.384,8.698L0.626,9.953L0.626,13.508L-12.003,13.508L-12.003,9.953Z" style="fill:rgb(29,29,27);fill-rule:nonzero;"/>
        </g>
        <g transform="matrix(1,0,0,1,137.229,180.771)">
            <path d="M0,-33.249C2.176,-33.249 3.513,-32.119 3.513,-29.484C3.513,-27.018 1.716,-25.679 0,-25.679C-2.257,-25.679 -3.597,-27.018 -3.597,-29.484C-3.597,-31.868 -1.883,-33.249 0,-33.249M6.356,-3.347L6.356,0L-6.189,0L-6.189,-3.347L-2.843,-4.392L-2.843,-17.983L-6.189,-19.03L-6.189,-22.374L3.43,-22.584L3.43,-4.392L6.356,-3.347Z" style="fill:rgb(29,29,27);fill-rule:nonzero;"/>
        </g>
        <g transform="matrix(1,0,0,1,155.462,177.55)">
            <path d="M0,-16.478C0,-16.478 3.973,-19.698 7.696,-19.698C11.752,-19.698 14.053,-16.813 14.053,-12.254L14.053,-1.172L16.979,-0.126L16.979,3.22L5.479,3.22L5.479,-0.126L7.779,-1.172L7.779,-11.125C7.779,-13.048 6.69,-14.471 4.934,-14.471C2.343,-14.471 0.46,-12.086 0.46,-12.086L0.46,-1.172L2.76,-0.126L2.76,3.22L-9.159,3.22L-9.159,-0.126L-5.813,-1.172L-5.813,-14.763L-9.159,-15.81L-9.159,-19.154L-0.293,-19.364L0,-16.478Z" style="fill:rgb(29,29,27);fill-rule:nonzero;"/>
        </g>
        <g transform="matrix(1,0,0,1,194.816,161.323)">
            <path d="M0,16.311C-1.046,17.231 -4.307,19.866 -8.992,19.866C-15.892,19.866 -19.865,15.6 -19.865,8.49C-19.865,1.046 -15.683,-3.555 -8.363,-3.555C-4.767,-3.555 -1.046,-2.09 -1.046,-2.09L-1.254,4.768L-5.019,4.768L-5.604,1.799C-5.604,1.799 -6.816,1.465 -8.49,1.465C-11.5,1.465 -13.383,3.472 -13.383,7.654C-13.383,12.213 -11.626,14.848 -8.156,14.848C-5.227,14.848 -3.387,13.383 -2.09,12.631L0,16.311Z" style="fill:rgb(29,29,27);fill-rule:nonzero;"/>
        </g>
        <g transform="matrix(1,0,0,1,203.389,156.973)">
            <path d="M0,12.506C0,17.106 1.337,19.197 4.39,19.197C7.403,19.197 8.866,17.315 8.866,12.297C8.866,8.031 7.61,5.815 4.6,5.815C1.547,5.815 0,7.486 0,12.506M-0.879,-4.265L1.17,-1.212L11.292,-7.36L8.447,-11.709L-0.879,-4.265ZM15.349,12.088C15.349,19.615 10.957,24.215 4.183,24.215C-2.636,24.215 -6.483,20.661 -6.483,12.714C-6.483,5.187 -2.007,0.795 4.81,0.795C11.583,0.795 15.349,4.895 15.349,12.088" style="fill:rgb(29,29,27);fill-rule:nonzero;"/>
        </g>
        <g transform="matrix(1,0,0,1,230.824,177.55)">
            <path d="M0,-16.478C0,-16.478 3.973,-19.698 7.696,-19.698C11.752,-19.698 14.052,-16.813 14.052,-12.254L14.052,-1.172L16.979,-0.126L16.979,3.22L5.479,3.22L5.479,-0.126L7.779,-1.172L7.779,-11.125C7.779,-13.048 6.69,-14.471 4.934,-14.471C2.343,-14.471 0.46,-12.086 0.46,-12.086L0.46,-1.172L2.76,-0.126L2.76,3.22L-9.159,3.22L-9.159,-0.126L-5.813,-1.172L-5.813,-14.763L-9.159,-15.81L-9.159,-19.154L-0.293,-19.364L0,-16.478Z" style="fill:rgb(29,29,27);fill-rule:nonzero;"/>
        </g>
        <g transform="matrix(1,0,0,1,274.903,166.132)">
            <path d="M0,-2.718C-0.794,-3.094 -2.05,-3.345 -3.261,-3.345C-6.817,-3.345 -8.07,-0.627 -8.07,3.555C-8.07,7.78 -6.9,10.038 -4.057,10.038C-1.38,10.038 0,7.653 0,7.653L0,-2.718ZM0.335,12.421C-0.25,13.007 -2.384,15.056 -5.98,15.056C-11.836,15.056 -14.553,10.79 -14.553,3.89C-14.553,-3.973 -10.79,-8.364 -3.137,-8.364C-2.133,-8.364 -0.92,-8.155 0,-7.946L0,-13.258L-3.347,-14.093L-3.347,-17.439L6.273,-17.774L6.273,10.163L9.619,10.999L9.619,14.344L0.71,14.638L0.335,12.421Z" style="fill:rgb(29,29,27);fill-rule:nonzero;"/>
        </g>
        <g transform="matrix(1,0,0,1,293.431,171.987)">
            <path d="M0,-5.018L7.57,-5.018C7.57,-7.401 6.564,-9.2 4.14,-9.2C1.797,-9.2 0.334,-7.485 0,-5.018M-0.085,-1.128C0.167,2.217 2.09,4.183 4.977,4.183C8.447,4.183 12.002,2.217 12.002,2.217L13.8,5.688C13.8,5.688 9.618,9.201 4.264,9.201C-2.929,9.201 -6.609,5.02 -6.609,-2.09C-6.609,-9.409 -2.469,-14.219 4.558,-14.219C10.79,-14.219 14.05,-10.371 14.05,-4.391C14.05,-2.801 13.8,-1.253 13.8,-1.253L-0.085,-1.128Z" style="fill:rgb(29,29,27);fill-rule:nonzero;"/>
        </g>
        <g transform="matrix(1,0,0,1,330.231,162.41)">
            <path d="M0,13.927C0,21.203 -2.176,25.051 -9.536,25.051C-10.873,25.051 -12.713,24.758 -12.713,24.758L-12.17,20.451L-10.163,20.451C-7.653,20.451 -6.483,19.072 -6.483,16.436L-6.483,-6.106L-9.619,-7.361L-9.619,-10.915L3.137,-11.124L3.137,-7.361L0,-6.106L0,13.927Z" style="fill:rgb(29,29,27);fill-rule:nonzero;"/>
        </g>
        <g transform="matrix(1,0,0,1,335.458,180.978)">
            <path d="M0,-22.582L9.619,-22.792L9.619,-8.363C9.619,-6.063 10.289,-5.018 12.17,-5.018C14.889,-5.018 16.896,-7.276 16.896,-7.276L16.896,-18.191L13.55,-19.237L13.55,-22.582L23.169,-22.792L23.169,-4.6L26.515,-3.763L26.515,-0.501L17.691,-0.208L17.272,-3.136C17.272,-3.136 13.926,0.21 9.953,0.21C5.772,0.21 3.347,-2.592 3.347,-7.276L3.347,-18.191L0,-19.237L0,-22.582Z" style="fill:rgb(29,29,27);fill-rule:nonzero;"/>
        </g>
        <g transform="matrix(1,0,0,1,373.012,162.453)">
            <path d="M0,14.051C2.217,14.051 4.477,11.626 4.477,11.626L4.477,8.824L2.093,8.824C-1.17,8.824 -2.467,9.661 -2.467,11.543C-2.467,13.131 -1.587,14.051 0,14.051M4.77,15.599C4.77,15.599 1.55,18.736 -2.007,18.736C-6.063,18.736 -8.53,16.352 -8.53,12.17C-8.53,7.235 -4.808,5.27 1.55,5.27L4.477,5.27L4.477,2.969C4.477,0.837 3.347,-0.084 1.256,-0.084C-0.877,-0.084 -2.424,0.543 -2.424,0.543L-3.051,3.178L-6.816,3.178L-7.109,-3.011C-7.109,-3.011 -2.047,-4.685 1.967,-4.685C8.323,-4.685 10.749,-2.468 10.749,3.596L10.749,13.926L13.886,14.679L13.886,18.024L5.522,18.318L4.77,15.599Z" style="fill:rgb(29,29,27);fill-rule:nonzero;"/>
        </g>
        <g transform="matrix(1,0,0,1,398.567,177.55)">
            <path d="M0,-16.478C0,-16.478 3.974,-19.698 7.696,-19.698C11.753,-19.698 14.053,-16.813 14.053,-12.254L14.053,-1.172L16.979,-0.126L16.979,3.22L5.479,3.22L5.479,-0.126L7.779,-1.172L7.779,-11.125C7.779,-13.048 6.69,-14.471 4.934,-14.471C2.343,-14.471 0.46,-12.086 0.46,-12.086L0.46,-1.172L2.76,-0.126L2.76,3.22L-9.159,3.22L-9.159,-0.126L-5.812,-1.172L-5.812,-14.763L-9.159,-15.81L-9.159,-19.154L-0.293,-19.364L0,-16.478Z" style="fill:rgb(29,29,27);fill-rule:nonzero;"/>
        </g>
        <g transform="matrix(1,0,0,1,223.376,197.985)">
            <path d="M0,9.514L0,2.455L-2.854,2.455L-2.854,-0.522L0,-0.921L0,-5.156L4.604,-5.984L4.604,-0.921L8.9,-0.921L8.9,2.455L4.604,2.455L4.604,9.207C4.604,11.171 4.94,11.969 6.23,11.969C7.058,11.969 8.256,11.478 8.654,11.263L9.758,13.595C8.256,14.7 6.536,15.498 4.542,15.498C1.012,15.498 0,13.043 0,9.514" style="fill:rgb(0,102,51);fill-rule:nonzero;"/>
        </g>
        <g transform="matrix(1,0,0,1,241.107,204.184)">
            <path d="M0,-5.8C0.89,-6.537 2.884,-7.887 5.156,-7.887C8.286,-7.887 9.974,-5.8 9.974,-2.362L9.974,5.77L12.122,6.537L12.122,8.992L3.774,8.992L3.774,6.537L5.37,5.801L5.37,-1.627C5.37,-3.161 4.756,-4.082 3.344,-4.082C1.626,-4.082 0,-2.455 0,-2.455L0,5.77L1.626,6.537L1.626,8.992L-7.059,8.992L-7.059,6.537L-4.604,5.77L-4.604,-11.478L-7.059,-12.091L-7.059,-14.546L0,-14.792L0,-5.8Z" style="fill:rgb(0,102,51);fill-rule:nonzero;"/>
        </g>
        <g transform="matrix(1,0,0,1,259.907,206.732)">
            <path d="M0,-3.683L5.556,-3.683C5.556,-5.432 4.818,-6.752 3.038,-6.752C1.32,-6.752 0.246,-5.493 0,-3.683M-0.06,-0.829C0.124,1.626 1.536,3.068 3.652,3.068C6.2,3.068 8.809,1.626 8.809,1.626L10.128,4.173C10.128,4.173 7.058,6.751 3.13,6.751C-2.148,6.751 -4.848,3.682 -4.848,-1.535C-4.848,-6.905 -1.81,-10.434 3.346,-10.434C7.918,-10.434 10.313,-7.611 10.313,-3.223C10.313,-2.056 10.128,-0.921 10.128,-0.921L-0.06,-0.829Z" style="fill:rgb(0,102,51);fill-rule:nonzero;"/>
        </g>
        <g transform="matrix(1,0,0,1,297.363,210.415)">
            <path d="M0,-11.202L0,-13.657L7.856,-13.81L7.856,-11.202L6.23,-10.834L2.148,2.762L-2.546,2.762L-4.97,-5.064L-5.522,-7.458L-6.29,-4.113L-8.53,2.762L-13.194,2.762L-17.369,-10.772L-18.719,-11.202L-18.719,-13.657L-10.678,-13.81L-10.678,-11.202L-12.612,-10.834L-10.586,-2.209L-7.334,-13.289L-3.282,-13.964L0.062,-2.209L1.873,-10.742L0,-11.202Z" style="fill:rgb(0,102,51);fill-rule:nonzero;"/>
        </g>
        <g transform="matrix(1,0,0,1,310.975,213.176)">
            <path d="M0,-24.398C1.596,-24.398 2.578,-23.569 2.578,-21.636C2.578,-19.825 1.258,-18.842 0,-18.842C-1.658,-18.842 -2.641,-19.825 -2.641,-21.636C-2.641,-23.385 -1.382,-24.398 0,-24.398M4.664,-2.455L4.664,0L-4.542,0L-4.542,-2.455L-2.086,-3.222L-2.086,-13.196L-4.542,-13.963L-4.542,-16.419L2.516,-16.571L2.516,-3.222L4.664,-2.455Z" style="fill:rgb(0,102,51);fill-rule:nonzero;"/>
        </g>
        <g transform="matrix(1,0,0,1,324.349,210.814)">
            <path d="M0,-12.092C0,-12.092 2.916,-14.455 5.648,-14.455C8.624,-14.455 10.313,-12.337 10.313,-8.992L10.313,-0.86L12.461,-0.092L12.461,2.363L4.021,2.363L4.021,-0.092L5.708,-0.86L5.708,-8.164C5.708,-9.575 4.91,-10.619 3.622,-10.619C1.72,-10.619 0.338,-8.87 0.338,-8.87L0.338,-0.86L2.026,-0.092L2.026,2.363L-6.721,2.363L-6.721,-0.092L-4.264,-0.86L-4.264,-10.834L-6.721,-11.601L-6.721,-14.056L-0.214,-14.209L0,-12.092Z" style="fill:rgb(0,102,51);fill-rule:nonzero;"/>
        </g>
        <g transform="matrix(1,0,0,1,343.487,206.732)">
            <path d="M0,-3.683L5.557,-3.683C5.557,-5.432 4.818,-6.752 3.038,-6.752C1.32,-6.752 0.246,-5.493 0,-3.683M-0.06,-0.829C0.124,1.626 1.536,3.068 3.652,3.068C6.2,3.068 8.809,1.626 8.809,1.626L10.129,4.173C10.129,4.173 7.059,6.751 3.131,6.751C-2.147,6.751 -4.848,3.682 -4.848,-1.535C-4.848,-6.905 -1.81,-10.434 3.347,-10.434C7.919,-10.434 10.313,-7.611 10.313,-3.223C10.313,-2.056 10.129,-0.921 10.129,-0.921L-0.06,-0.829Z" style="fill:rgb(0,102,51);fill-rule:nonzero;"/>
        </g>
        <g transform="matrix(1,0,0,1,369.129,193.32)">
            <path d="M0,16.296C0,16.296 0.706,16.542 2.27,16.542C4.94,16.542 5.922,14.516 5.922,11.417C5.922,8.348 5.064,6.66 2.916,6.66C1.074,6.66 0,8.041 0,8.041L0,16.296ZM0,4.604C0.521,4.205 2.056,2.978 4.388,2.978C8.5,2.978 10.681,5.955 10.681,11.11C10.681,16.879 7.672,20.224 1.78,20.224C-1.596,20.224 -4.603,19.549 -4.603,19.549L-4.603,-0.614L-6.904,-1.226L-6.904,-3.682L0,-3.928L0,4.604Z" style="fill:rgb(0,102,51);fill-rule:nonzero;"/>
        </g>
        <g transform="matrix(1,0,0,1,388.515,199.734)">
            <path d="M0,10.312C1.626,10.312 3.284,8.532 3.284,8.532L3.284,6.476L1.534,6.476C-0.859,6.476 -1.81,7.09 -1.81,8.471C-1.81,9.637 -1.166,10.312 0,10.312M3.498,11.447C3.498,11.447 1.137,13.749 -1.474,13.749C-4.45,13.749 -6.26,12 -6.26,8.931C-6.26,5.31 -3.53,3.867 1.137,3.867L3.284,3.867L3.284,2.18C3.284,0.615 2.454,-0.062 0.92,-0.062C-0.644,-0.062 -1.779,0.4 -1.779,0.4L-2.239,2.333L-5.002,2.333L-5.218,-2.209C-5.218,-2.209 -1.504,-3.437 1.442,-3.437C6.106,-3.437 7.887,-1.811 7.887,2.64L7.887,10.22L10.188,10.772L10.188,13.227L4.051,13.442L3.498,11.447Z" style="fill:rgb(0,102,51);fill-rule:nonzero;"/>
        </g>
        <g transform="matrix(1,0,0,1,407.255,210.753)">
            <path d="M0,-12.031C0,-12.031 2.21,-14.455 4.267,-14.455C5.954,-14.455 7.12,-13.903 7.12,-13.903L6.875,-8.011L4.112,-8.011L3.652,-10.619C1.872,-10.619 0.338,-8.901 0.338,-8.901L0.338,-0.799L3.406,-0.031L3.406,2.424L-6.72,2.424L-6.72,-0.031L-4.264,-0.799L-4.264,-10.773L-6.72,-11.54L-6.72,-13.995L-0.275,-14.148L0,-12.031Z" style="fill:rgb(0,102,51);fill-rule:nonzero;"/>
        </g>
        <g>
            <g>
                <g transform="matrix(1,0,0,1,482.234,171.943)">
                    <path d="M0,-0.598C0,-0.598 -0.001,-0.451 -0.003,-0.175C-0.002,-0.116 0,-0.059 0,0L0,-0.598Z" style="fill:rgb(252,236,42);fill-rule:nonzero;"/>
                </g>
                <g transform="matrix(-0.999828,-0.0185672,-0.0185672,0.999828,480.813,171.305)">
                    <rect x="-2.859" y="0.027" width="2.865" height="0.559" style="fill:rgb(252,236,42);"/>
                </g>
                <g transform="matrix(1,0,0,1,453.039,171.346)">
                    <path d="M0,0.598C0,0.539 0.002,0.482 0.003,0.423C0.001,0.147 0,0 0,0L0,0.598Z" style="fill:rgb(252,236,42);fill-rule:nonzero;"/>
                </g>
                <g transform="matrix(1,0,0,1,454.465,171.338)">
                    <path d="M0,0.605L-2.854,0.605L-2.854,0.007L0,0L0.002,0.424L0,0.424L0,0.605Z" style="fill:rgb(252,236,42);fill-rule:nonzero;"/>
                </g>
                <g transform="matrix(1,0,0,1,455.782,129.436)">
                    <path d="M0,112.473C2.915,113.805 7.009,114.509 11.854,114.509C16.699,114.509 20.794,113.805 23.708,112.473C24.064,112.022 25.021,109.911 24.878,106.706C24.664,101.937 24.985,48.411 25.023,42.324C24.978,37.123 22.762,32.608 18.438,28.929C17.65,28.258 17.009,26.709 16.532,24.325C16.305,23.186 15.597,8.14 15.385,3.555L15.368,3.184L15.953,2.014L15.788,0.028L15.384,-0.7L15.384,-1.779C15.295,-1.792 15.198,-1.806 15.093,-1.822C14.556,-1.907 13.743,-2.035 12.145,-2.035L11.96,-2.035C10.236,-2.025 9.28,-1.898 8.648,-1.815C8.53,-1.799 8.424,-1.785 8.326,-1.774L8.326,-0.7L7.921,0.028L7.756,2.014L8.341,3.184L8.324,3.555C8.112,8.14 7.404,23.185 7.177,24.324C6.698,26.709 6.058,28.258 5.271,28.928C0.947,32.608 -1.269,37.123 -1.314,42.345C-1.311,42.916 -0.945,101.719 -1.168,106.706C-1.312,109.911 -0.355,112.022 0,112.473M11.854,117.362C6.521,117.362 1.959,116.544 -1.341,114.996C-2.963,114.236 -4.189,110.38 -4.019,106.578C-3.799,101.662 -4.164,42.934 -4.168,42.341C-4.114,36.318 -1.49,30.936 3.422,26.755C3.599,26.554 4.037,25.47 4.38,23.764C4.534,22.815 5.115,11.172 5.457,3.796L4.846,2.574L5.129,-0.822L5.473,-1.44L5.473,-2.974L5.689,-3.32C5.821,-3.532 6.545,-4.589 7.796,-4.589C7.913,-4.589 8.064,-4.616 8.273,-4.644C8.935,-4.731 10.04,-4.877 11.943,-4.888L12.145,-4.889C13.967,-4.889 14.95,-4.734 15.537,-4.641C15.696,-4.616 15.813,-4.591 15.914,-4.589C17.163,-4.589 17.888,-3.533 18.02,-3.322L18.237,-2.974L18.237,-1.439L18.58,-0.821L18.863,2.574L18.252,3.795C18.595,11.17 19.175,22.814 19.333,23.78C19.671,25.469 20.109,26.553 20.312,26.779C25.199,30.936 27.823,36.318 27.877,42.32C27.839,48.421 27.518,101.88 27.729,106.578C27.898,110.38 26.672,114.236 25.049,114.996C21.75,116.544 17.187,117.362 11.854,117.362" style="fill:rgb(252,236,42);fill-rule:nonzero;"/>
                </g>
            </g>
        </g>
        <g>
            <g>
                <g transform="matrix(1,0,0,1,462.708,171.43)">
                    <path d="M0,-0.598C0,-0.598 -0.002,-0.451 -0.003,-0.175C-0.003,-0.117 0,-0.059 0,0L0,-0.598Z" style="fill:rgb(75,168,44);fill-rule:nonzero;"/>
                </g>
                <g transform="matrix(-1,0,0,1,461.281,170.817)">
                    <rect x="-2.854" y="0" width="2.854" height="0.613" style="fill:rgb(75,168,44);"/>
                </g>
                <g transform="matrix(1,0,0,1,433.512,170.831)">
                    <path d="M0,0.598C0,0.539 0.003,0.482 0.003,0.423C0.001,0.147 0,0 0,0L0,0.598Z" style="fill:rgb(75,168,44);fill-rule:nonzero;"/>
                </g>
                <g transform="matrix(1,0,0,1,434.939,170.824)">
                    <path d="M0,0.606L-2.854,0.606L-2.854,0.007L0,0L0.003,0.419L0,0.419L0,0.606Z" style="fill:rgb(75,168,44);fill-rule:nonzero;"/>
                </g>
                <g transform="matrix(1,0,0,1,436.256,128.922)">
                    <path d="M0,112.473C2.916,113.805 7.01,114.509 11.854,114.509C16.699,114.509 20.794,113.805 23.708,112.473C24.064,112.022 25.021,109.911 24.877,106.706C24.663,101.939 24.984,48.411 25.022,42.324C24.977,37.123 22.761,32.608 18.437,28.929C17.651,28.259 17.01,26.71 16.531,24.326C16.305,23.186 15.596,8.14 15.384,3.556L15.367,3.185L15.952,2.015L15.787,0.028L15.383,-0.699L15.383,-1.779C15.294,-1.792 15.197,-1.806 15.093,-1.822C14.555,-1.907 13.743,-2.035 12.145,-2.035L11.96,-2.034C10.235,-2.025 9.28,-1.898 8.647,-1.815C8.53,-1.799 8.424,-1.785 8.325,-1.774L8.325,-0.699L7.921,0.028L7.756,2.015L8.341,3.185L8.324,3.556C8.112,8.14 7.403,23.186 7.177,24.324C6.698,26.71 6.057,28.259 5.271,28.928C0.947,32.607 -1.269,37.121 -1.314,42.345C-1.276,48.411 -0.955,101.939 -1.169,106.706C-1.312,109.911 -0.356,112.022 0,112.473M11.854,117.362C6.521,117.362 1.959,116.544 -1.341,114.996C-2.963,114.24 -4.19,110.383 -4.02,106.578C-3.809,101.882 -4.13,48.421 -4.168,42.341C-4.115,36.318 -1.49,30.935 3.422,26.755C3.599,26.554 4.036,25.47 4.379,23.764C4.533,22.815 5.114,11.172 5.456,3.796L4.846,2.575L5.129,-0.821L5.472,-1.439L5.472,-2.973L5.688,-3.32C5.821,-3.532 6.545,-4.589 7.796,-4.589C7.913,-4.589 8.063,-4.615 8.273,-4.644C8.934,-4.731 10.04,-4.877 11.942,-4.888L12.145,-4.889C13.967,-4.889 14.949,-4.734 15.537,-4.641C15.695,-4.615 15.813,-4.591 15.914,-4.589C17.163,-4.589 17.887,-3.532 18.02,-3.32L18.236,-2.973L18.236,-1.439L18.579,-0.821L18.862,2.575L18.252,3.796C18.594,11.172 19.175,22.815 19.333,23.781C19.671,25.47 20.109,26.554 20.312,26.779C25.198,30.936 27.823,36.318 27.876,42.32C27.838,48.421 27.517,101.882 27.728,106.578C27.898,110.383 26.671,114.24 25.046,114.998C21.749,116.544 17.187,117.362 11.854,117.362" style="fill:rgb(75,168,44);fill-rule:nonzero;"/>
                </g>
            </g>
        </g>
        <g>
            <g>
                <g transform="matrix(1,0,0,1,540.928,171.943)">
                    <path d="M0,-0.598C0,-0.598 -0.002,-0.451 -0.003,-0.175C-0.003,-0.116 0,-0.059 0,0L0,-0.598Z" style="fill:rgb(0,143,48);fill-rule:nonzero;"/>
                </g>
                <g transform="matrix(-0.999828,-0.0185672,-0.0185672,0.999828,539.507,171.305)">
                    <rect x="-2.859" y="0.027" width="2.865" height="0.559" style="fill:rgb(0,143,48);"/>
                </g>
                <g transform="matrix(1,0,0,1,511.732,171.346)">
                    <path d="M0,0.598C0,0.539 0.003,0.482 0.003,0.423C0.001,0.147 0,0 0,0L0,0.598Z" style="fill:rgb(0,143,48);fill-rule:nonzero;"/>
                </g>
                <g transform="matrix(1,0,0,1,513.16,171.339)">
                    <path d="M0,0.604L-2.854,0.604L-2.854,0.006L0,0L0.002,0.423L0,0.423L0,0.604Z" style="fill:rgb(0,143,48);fill-rule:nonzero;"/>
                </g>
                <g transform="matrix(1,0,0,1,514.476,129.436)">
                    <path d="M0,112.473C2.915,113.805 7.009,114.509 11.854,114.509C16.699,114.509 20.794,113.805 23.708,112.473C24.063,112.022 25.021,109.911 24.877,106.706C24.664,101.937 24.985,48.411 25.022,42.324C24.977,37.123 22.761,32.608 18.437,28.929C17.65,28.258 17.009,26.709 16.532,24.325C16.304,23.186 15.597,8.14 15.385,3.556L15.368,3.185L15.952,2.014L15.787,0.028L15.383,-0.7L15.383,-1.779C15.294,-1.791 15.198,-1.806 15.093,-1.822C14.555,-1.907 13.742,-2.035 12.144,-2.035L11.959,-2.034C10.235,-2.025 9.279,-1.898 8.647,-1.815C8.53,-1.799 8.424,-1.785 8.325,-1.774L8.325,-0.7L7.921,0.028L7.756,2.014L8.341,3.184L8.324,3.556C8.112,8.14 7.403,23.185 7.177,24.324C6.698,26.71 6.057,28.258 5.271,28.928C0.946,32.608 -1.269,37.123 -1.314,42.345C-1.312,42.916 -0.945,101.719 -1.169,106.706C-1.312,109.911 -0.356,112.022 0,112.473M11.854,117.362C6.521,117.362 1.958,116.544 -1.341,114.996C-2.963,114.236 -4.189,110.381 -4.02,106.578C-3.799,101.663 -4.165,42.934 -4.168,42.341C-4.115,36.318 -1.491,30.936 3.421,26.755C3.598,26.554 4.037,25.47 4.379,23.764C4.533,22.815 5.114,11.172 5.457,3.796L4.845,2.574L5.129,-0.821L5.472,-1.44L5.472,-2.974L5.688,-3.32C5.821,-3.532 6.545,-4.589 7.795,-4.589C7.913,-4.589 8.063,-4.615 8.273,-4.644C8.934,-4.731 10.039,-4.877 11.942,-4.888L12.144,-4.889C13.966,-4.889 14.95,-4.734 15.537,-4.641C15.696,-4.615 15.813,-4.591 15.914,-4.589C17.162,-4.589 17.887,-3.533 18.02,-3.322L18.236,-2.974L18.236,-1.439L18.579,-0.821L18.862,2.574L18.252,3.795C18.594,11.17 19.174,22.814 19.332,23.78C19.67,25.469 20.109,26.553 20.312,26.779C25.199,30.936 27.823,36.318 27.876,42.32C27.838,48.421 27.518,101.88 27.728,106.578C27.898,110.381 26.672,114.236 25.048,114.996C21.75,116.544 17.187,117.362 11.854,117.362" style="fill:rgb(0,143,48);fill-rule:nonzero;"/>
                </g>
            </g>
        </g>
        <g>
            <g>
                <g transform="matrix(1,0,0,1,521.402,171.43)">
                    <path d="M0,-0.598C0,-0.598 -0.001,-0.451 -0.003,-0.175C-0.002,-0.117 0,-0.059 0,0L0,-0.598Z" style="fill:rgb(222,220,0);fill-rule:nonzero;"/>
                </g>
                <g transform="matrix(-1,0,0,1,519.975,170.817)">
                    <rect x="-2.854" y="0" width="2.854" height="0.613" style="fill:rgb(222,220,0);"/>
                </g>
                <g transform="matrix(1,0,0,1,492.207,170.832)">
                    <path d="M0,0.598C0,0.539 0.002,0.481 0.002,0.423C0.001,0.147 0,0 0,0L0,0.598Z" style="fill:rgb(222,220,0);fill-rule:nonzero;"/>
                </g>
                <g transform="matrix(1,0,0,1,493.633,170.824)">
                    <path d="M0,0.606L-2.854,0.606L-2.854,0.007L0,0L0.003,0.419L0,0.419L0,0.606Z" style="fill:rgb(222,220,0);fill-rule:nonzero;"/>
                </g>
                <g transform="matrix(1,0,0,1,494.95,128.923)">
                    <path d="M0,112.473C2.917,113.805 7.011,114.508 11.854,114.508C16.7,114.508 20.794,113.805 23.709,112.473C24.064,112.021 25.022,109.91 24.877,106.706C24.664,101.938 24.985,48.411 25.022,42.324C24.977,37.122 22.762,32.608 18.439,28.928C17.651,28.259 17.011,26.71 16.532,24.325C16.305,23.185 15.597,8.14 15.385,3.556L15.368,3.185L15.952,2.014L15.787,0.027L15.383,-0.699L15.383,-1.779C15.294,-1.792 15.197,-1.806 15.093,-1.822C14.555,-1.907 13.743,-2.036 12.145,-2.036L11.96,-2.035C10.235,-2.025 9.28,-1.899 8.648,-1.815C8.531,-1.799 8.424,-1.786 8.325,-1.775L8.325,-0.699L7.922,0.027L7.757,2.014L8.341,3.185L8.324,3.556C8.112,8.14 7.404,23.185 7.177,24.324C6.698,26.71 6.058,28.259 5.271,28.927C0.947,32.607 -1.268,37.121 -1.313,42.345C-1.276,48.411 -0.955,101.938 -1.168,106.706C-1.312,109.91 -0.356,112.021 0,112.473M11.854,117.362C6.521,117.362 1.959,116.544 -1.341,114.996C-2.962,114.24 -4.189,110.383 -4.019,106.578C-3.809,101.881 -4.13,48.421 -4.167,42.34C-4.114,36.317 -1.49,30.935 3.422,26.754C3.599,26.553 4.037,25.47 4.379,23.764C4.534,22.815 5.114,11.171 5.457,3.795L4.846,2.574L5.129,-0.821L5.472,-1.439L5.472,-2.973L5.688,-3.321C5.822,-3.533 6.546,-4.59 7.796,-4.59C7.914,-4.59 8.064,-4.616 8.274,-4.644C8.935,-4.731 10.04,-4.877 11.943,-4.888L12.145,-4.889C13.967,-4.889 14.95,-4.734 15.537,-4.641C15.696,-4.616 15.813,-4.591 15.914,-4.59C17.163,-4.59 17.887,-3.533 18.021,-3.321L18.236,-2.973L18.236,-1.439L18.579,-0.821L18.863,2.574L18.252,3.795C18.594,11.171 19.175,22.815 19.333,23.781C19.672,25.47 20.11,26.553 20.312,26.778C25.199,30.936 27.823,36.317 27.876,42.32C27.839,48.421 27.518,101.881 27.728,106.578C27.898,110.383 26.671,114.24 25.046,114.997C21.75,116.544 17.188,117.362 11.854,117.362" style="fill:rgb(222,220,0);fill-rule:nonzero;"/>
                </g>
            </g>
        </g>
    </g>
</svg>
